<svg width="16" height="16" viewBox="0 0 16 16" fill="none" xmlns="http://www.w3.org/2000/svg">
<rect width="16" height="16" rx="4" fill="#EEEEEE"/>
<path d="M7.55094 3.08771C8.08089 4.20252 6.44978 4.9597 5.70147 4.12348C5.38966 3.76723 5.53308 3.07877 6.28941 2.70465C6.66792 2.51312 7.19787 2.339 7.55094 3.08771Z" fill="black"/>
<path d="M10.887 2.5972C11.4636 3.81075 9.68702 4.63529 8.87269 3.72484C8.53322 3.33651 8.68913 2.58781 9.51349 2.18024C9.92523 1.97153 10.502 1.78252 10.887 2.5972Z" fill="black"/>
<path fill-rule="evenodd" clip-rule="evenodd" d="M7.47535 12.9712C8.68201 13.113 9.93796 12.7265 10.4231 11.9283C10.8333 11.2586 10.4976 11.0268 10.0249 11.5675C9.03018 12.7395 7.99794 12.2115 7.56278 11.0268L7.67475 10.9883C9.77626 10.1255 11.0944 7.78223 10.2614 6.45596C9.11694 4.6275 5.53555 6.2626 5.08768 8.82511C4.67728 11.1942 5.74677 12.778 7.47535 12.9712ZM8.76897 6.58495C9.12963 7.17718 8.69447 9.27598 7.38856 10.2288C7.35131 9.93235 7.35131 9.6107 7.37607 9.27598C7.63725 6.9325 8.38355 5.96706 8.76897 6.58495Z" fill="black"/>
</svg>
